<svg width="1920" height="1080" viewBox="0 0 1920 1080" xmlns="http://www.w3.org/2000/svg"><rect width="1920" height="1080" fill="#ffffff"/><path d="M 0,1080 C 0,1080 0,180 0,180 C 107.49743589743588,188.79999999999998 214.99487179487176,197.59999999999997 314,197 C 413.00512820512824,196.40000000000003 503.5179487179488,186.40000000000003 613,178 C 722.4820512820512,169.59999999999997 850.9333333333334,162.8 975,176 C 1099.0666666666666,189.2 1218.748717948718,222.4 1332,219 C 1445.251282051282,215.6 1552.0717948717947,175.6 1649,163 C 1745.9282051282053,150.4 1832.9641025641026,165.2 1920,180 C 1920,180 1920,1080 1920,1080 Z" fill="#a5e3d1" opacity="0.09999999999999999"/><path d="M 0,1080 C 0,1080 0,360 0,360 C 123.14358974358976,388.24102564102566 246.28717948717951,416.48205128205126 348,422 C 449.7128205128205,427.51794871794874 529.9948717948716,410.31282051282056 614,408 C 698.0051282051284,405.68717948717944 785.7333333333333,418.26666666666665 911,402 C 1036.2666666666667,385.73333333333335 1199.071794871795,340.6205128205129 1313,332 C 1426.928205128205,323.3794871794871 1491.9794871794873,351.25128205128203 1585,362 C 1678.0205128205127,372.74871794871797 1799.0102564102563,366.374358974359 1920,360 C 1920,360 1920,1080 1920,1080 Z" fill="#a5e3d1" opacity="0.19999999999999998"/><path d="M 0,1080 C 0,1080 0,540 0,540 C 93.3666666666667,531.4923076923077 186.7333333333334,522.9846153846154 281,522 C 375.2666666666666,521.0153846153846 470.43333333333317,527.5538461538462 592,529 C 713.5666666666668,530.4461538461538 861.5333333333335,526.8 973,532 C 1084.4666666666665,537.2 1159.4333333333332,551.2461538461539 1262,560 C 1364.5666666666668,568.7538461538461 1494.7333333333333,572.2153846153846 1609,568 C 1723.2666666666667,563.7846153846154 1821.6333333333332,551.8923076923077 1920,540 C 1920,540 1920,1080 1920,1080 Z" fill="#a5e3d1" opacity="0.3"/><path d="M 0,1080 C 0,1080 0,720 0,720 C 91.44871794871798,685.6974358974359 182.89743589743597,651.3948717948717 304,655 C 425.10256410256403,658.6051282051283 575.8589743589743,700.1179487179487 693,714 C 810.1410256410257,727.8820512820513 893.6666666666667,714.1333333333333 972,722 C 1050.3333333333333,729.8666666666667 1123.474358974359,759.3487179487179 1222,764 C 1320.525641025641,768.6512820512821 1444.4358974358975,748.4717948717949 1565,737 C 1685.5641025641025,725.5282051282051 1802.7820512820513,722.7641025641026 1920,720 C 1920,720 1920,1080 1920,1080 Z" fill="#a5e3d1" opacity="0.39999999999999997"/><path d="M 0,1080 C 0,1080 0,900 0,900 C 142.6051282051282,886.725641025641 285.2102564102564,873.4512820512821 372,871 C 458.7897435897436,868.5487179487179 489.7641025641026,876.9205128205127 596,864 C 702.2358974358974,851.0794871794873 883.7333333333333,816.8666666666669 990,842 C 1096.2666666666667,867.1333333333331 1127.302564102564,951.6128205128203 1222,958 C 1316.697435897436,964.3871794871797 1475.0564102564103,892.6820512820514 1602,870 C 1728.9435897435897,847.3179487179486 1824.4717948717948,873.6589743589743 1920,900 C 1920,900 1920,1080 1920,1080 Z" fill="#a5e3d1" opacity="0.49999999999999994"/></svg>