<svg width="1920" height="1080" viewBox="0 0 1920 1080" xmlns="http://www.w3.org/2000/svg"><path d="M 0,1080 C 0,1080 0,180 0,180 C 134.17948717948715,156.34358974358975 268.3589743589743,132.6871794871795 358,136 C 447.6410256410257,139.3128205128205 492.74358974358984,169.59487179487178 590,179 C 687.2564102564102,188.40512820512822 836.6666666666665,176.93333333333334 968,179 C 1099.3333333333335,181.06666666666666 1212.5897435897436,196.67179487179487 1318,201 C 1423.4102564102564,205.32820512820513 1520.974358974359,198.3794871794872 1620,193 C 1719.025641025641,187.6205128205128 1819.5128205128206,183.8102564102564 1920,180 C 1920,180 1920,1080 1920,1080 Z" fill="#a5e3d1" opacity="0.09999999999999999"/><path d="M 0,1080 C 0,1080 0,360 0,360 C 107.93333333333334,317.2564102564103 215.86666666666667,274.5128205128205 326,297 C 436.1333333333333,319.4871794871795 548.4666666666668,407.20512820512823 645,425 C 741.5333333333332,442.79487179487177 822.2666666666664,390.66666666666663 933,358 C 1043.7333333333336,325.33333333333337 1184.4666666666667,312.12820512820514 1308,314 C 1431.5333333333333,315.87179487179486 1537.8666666666668,332.8205128205128 1637,343 C 1736.1333333333332,353.1794871794872 1828.0666666666666,356.5897435897436 1920,360 C 1920,360 1920,1080 1920,1080 Z" fill="#a5e3d1" opacity="0.19999999999999998"/><path d="M 0,1080 C 0,1080 0,540 0,540 C 115.45128205128205,542.2076923076924 230.9025641025641,544.4153846153847 352,548 C 473.0974358974359,551.5846153846153 599.8410256410257,556.5461538461537 696,564 C 792.1589743589743,571.4538461538463 857.7333333333333,581.4000000000001 954,565 C 1050.2666666666667,548.5999999999999 1177.225641025641,505.8538461538461 1278,515 C 1378.774358974359,524.1461538461539 1453.3641025641025,585.1846153846154 1556,598 C 1658.6358974358975,610.8153846153846 1789.3179487179486,575.4076923076923 1920,540 C 1920,540 1920,1080 1920,1080 Z" fill="#a5e3d1" opacity="0.3"/><path d="M 0,1080 C 0,1080 0,720 0,720 C 84.09230769230771,719.1051282051283 168.18461538461543,718.2102564102564 271,707 C 373.8153846153846,695.7897435897436 495.3538461538461,674.2641025641026 624,661 C 752.6461538461539,647.7358974358974 888.4000000000001,642.7333333333332 1011,660 C 1133.6,677.2666666666668 1243.0461538461539,716.802564102564 1338,725 C 1432.9538461538461,733.197435897436 1513.4153846153847,710.0564102564103 1608,704 C 1702.5846153846153,697.9435897435897 1811.2923076923075,708.9717948717948 1920,720 C 1920,720 1920,1080 1920,1080 Z" fill="#a5e3d1" opacity="0.39999999999999997"/><path d="M 0,1080 C 0,1080 0,900 0,900 C 138.57692307692307,874.3153846153846 277.15384615384613,848.6307692307693 378,872 C 478.84615384615387,895.3692307692307 541.9615384615385,967.7923076923076 621,965 C 700.0384615384615,962.2076923076924 795,884.1999999999999 904,849 C 1013,813.8000000000001 1136.0384615384614,821.4076923076925 1267,849 C 1397.9615384615386,876.5923076923075 1536.8461538461538,924.1692307692307 1647,936 C 1757.1538461538462,947.8307692307693 1838.576923076923,923.9153846153847 1920,900 C 1920,900 1920,1080 1920,1080 Z" fill="#a5e3d1" opacity="0.49999999999999994"/></svg>